{"title":"The Angels Share 2012 BRRip x264 AAC-UNiQUE","uid":7666040,"size":1523493769,"categoryP":"video","categoryS":"movies","magnet":"?xt=urn:btih:f1c4081b606cb8f9c9263d4e5b2dfbd7b38654da&amp;dn=The+Angels+Share+2012+BRRip+x264+AAC-UNiQUE&amp;tr=udp%3A%2F%2Ftracker.openbittorrent.com%3A80&amp;tr=udp%3A%2F%2Fopen.demonii.com%3A1337&amp;tr=udp%3A%2F%2Ftracker.coppersurfer.tk%3A6969&amp;tr=udp%3A%2F%2Fexodus.desync.com%3A6969","seeders":1,"leechers":0,"uploader":"neon","files":-1,"time":1348441425,"description":"\n\nNarrowly avoiding jail, new dad Robbie vows to turn over a new leaf. A visit to a whisky distillery inspires him and his mates to seek a way out of their hopeless lives.\n\niMDB: http://www.imdb.com/title/tt1924394/\n\nGeneral\nComplete name : The Angels Share 2012 BRRip x264 AAC-UNiQUE.mp4\nFormat : MPEG-4\nFormat profile : Base Media\nCodec ID : isom\nFile size : 1.39 GiB\nDuration : 1h 41mn\nOverall bit rate mode : Variable\nOverall bit rate : 1 972 Kbps\nEncoded date : UTC 2012-09-23 19:45:15\n\nVideo\nID : 1\nFormat : AVC\nFormat/Info : Advanced Video Codec\nFormat profile : &lt;a class=&quot;__cf_email__&quot; href=&quot;/cdn-cgi/l/email-protection&quot; data-cfemail=&quot;fdb5949a95bdb1c9d3cc&quot;&gt;[email&amp;#160;protected]&lt;/a&gt;&lt;script cf-hash='f9e31' type=&quot;text/javascript&quot;&gt;\n/* &lt;![CDATA[ */!function(){try{var t=&quot;currentScript&quot;in document?document.currentScript:function(){for(var t=document.getElementsByTagName(&quot;script&quot;),e=t.length;e--;)if(t[e].getAttribute(&quot;cf-hash&quot;))return t[e]}();if(t&amp;&amp;t.previousSibling){var e,r,n,i,c=t.previousSibling,a=c.getAttribute(&quot;data-cfemail&quot;);if(a){for(e=&quot;&quot;,r=parseInt(a.substr(0,2),16),n=2;a.length-n;n+=2)i=parseInt(a.substr(n,2),16)^r,e+=String.fromCharCode(i);e=document.createTextNode(e),c.parentNode.replaceChild(e,c)}}}catch(u){}}();/* ]]&gt; */&lt;/script&gt;\nFormat settings, CABAC : Yes\nFormat settings, ReFrames : 3 frames\nCodec ID : avc1\nCodec ID/Info : Advanced Video Coding\nDuration : 1h 41mn\nBit rate mode : Variable\nBit rate : 1 655 Kbps\nMaximum bit rate : 40.0 Mbps\nWidth : 720 pixels\nHeight : 384 pixels\nDisplay aspect ratio : 1.85:1\nFrame rate mode : Constant\nFrame rate : 23.976 fps\nColor space : YUV\nChroma subsampling : 4:2:0\nBit depth : 8 bits\nScan type : Progressive\nBits/(Pixel*Frame) : 0.250\nStream size : 1.17 GiB (84%)\nWriting library : x264 core 128 r2216 198a7ea\n\nAudio\nID : 2\nFormat : AAC\nFormat/Info : Advanced Audio Codec\nFormat profile : LC\nCodec ID : 40\nDuration : 1h 41mn\nBit rate mode : Variable\nBit rate : 314 Kbps\nMaximum bit rate : 381 Kbps\nChannel(s) : 6 channels\nChannel positions : Front: L C R, Side: L R, LFE\nSampling rate : 48.0 KHz\nCompression mode : Lossy\nStream size : 227 MiB (16%)\nLanguage : English\nEncoded date : UTC 2012-09-23 19:45:52\n\nSource : .720p.BluRay.x264-TRiPS - Thanks!\n\n\n\n\n","torrent":{"xt":"urn:btih:f1c4081b606cb8f9c9263d4e5b2dfbd7b38654da","amp;dn":"The+Angels+Share+2012+BRRip+x264+AAC-UNiQUE","amp;tr":["udp%3A%2F%2Ftracker.openbittorrent.com%3A80","udp%3A%2F%2Fopen.demonii.com%3A1337","udp%3A%2F%2Ftracker.coppersurfer.tk%3A6969","udp%3A%2F%2Fexodus.desync.com%3A6969"],"infoHash":"f1c4081b606cb8f9c9263d4e5b2dfbd7b38654da","infoHashBuffer":{"type":"Buffer","data":[241,196,8,27,96,108,184,249,201,38,61,78,91,45,251,215,179,134,84,218]},"announce":[],"urlList":[]}}